# xmcd
#
# Track frame offsets:
#	150
#	15847
#	28947
#	44645
#	57745
#	72687
#	84785
#	100485
#	117740
#	131355
#	143677
#	159900
#	173037
#	186612
#	201750
#
# Disc length: 2842 seconds
#
# Revision: 1
# Processed by: cddbd v1.5.2PL0 Copyright (c) Steve Scherf et al.
# Submitted via: audiograbber 1.83.01
#
DISCID=da0b180f
DTITLE=Various Artist - CDX Volume 28
DYEAR=1992
DGENRE=Country
TTITLE0=Billy Ray Cyrus - Achy Breaky Heart
TTITLE1=Travis Tritt - Bible Belt
TTITLE2=Patty Loveless - Can't Stop Myself From Loving You
TTITLE3=Jack Robertson - Come And Get us Mama (We're in Troulbe With The Law)
TTITLE4=George Strait - Gone as a Girl Can Get
TTITLE5=Mavericks - Hey Good Lookin'
TTITLE6=Mike Reid - I Got a Life
TTITLE7=Alan Jackson - Midnight in Montgomery
TTITLE8=Paulette Carlson - Not With my Heart
TTITLE9=Larry Gatlin and The Gatlin Brothers - Pretty Woman Have Mercy
TTITLE10=Kenny Rogers - Someone Must Feel Like a Fool Tonight
TTITLE11=Matthews, Wright and King - The Power of Love
TTITLE12=Jessica Boucher - What a Friday Night is For
TTITLE13=John Anderson - When it Comes to You
TTITLE14=Cleve Francis - You do my Heart Good
EXTD=
EXTT0=
EXTT1=
EXTT2=
EXTT3=
EXTT4=
EXTT5=
EXTT6=
EXTT7=
EXTT8=
EXTT9=
EXTT10=
EXTT11=
EXTT12=
EXTT13=
EXTT14=
PLAYORDER=
